<svg id="Layer_1" data-name="Layer 1" xmlns="http://www.w3.org/2000/svg" viewBox="0 0 1366 768"><defs><style>.cls-1{fill:#fff;}.cls-2{fill:#62b1fa;}.cls-3{fill:#e559a5;}</style></defs><title>affini_white</title><path class="cls-1" d="M415.06,447.63V591.26h-68.3V559.91C333.19,582.84,307,595,270,595c-58.95,0-94-32.75-94-76.26,0-44.45,31.34-75.33,108.07-75.33h58c0-31.34-18.72-49.59-58-49.59-26.66,0-54.27,8.89-72.52,23.39l-26.2-51c27.61-19.65,68.31-30.41,108.55-30.41C370.62,335.81,415.06,371.36,415.06,447.63Zm-73,64.09V486H292c-34.16,0-44.92,12.63-44.92,29.47,0,18.25,15.44,30.42,41.17,30.42C312.6,545.88,333.66,534.65,342.08,511.72Z"/><path class="cls-1" d="M508.39,345.16H573v56.15H510.26v190h-73V401.31H398.44V345.16h38.84V333.94c0-56.62,34.62-93.58,97.31-93.58,20.59,0,42.11,4.21,55.68,13.57L571.08,306.8a51.11,51.11,0,0,0-29.47-8.89c-21.52,0-33.22,11.7-33.22,36.49Z"/><path class="cls-1" d="M660.21,334.4v10.76h64.56v56.15H662.08v190h-73V401.31H550.26V345.16h38.83V333.94c0-56.62,34.62-93.58,97.31-93.58,20.59,0,42.11,4.21,55.68,13.57L722.9,306.8a51.14,51.14,0,0,0-29.48-8.89C671.9,297.91,660.21,309.61,660.21,334.4Z"/><path class="cls-2" d="M754.71,263.76c0-22.93,18.25-40.71,45.39-40.71s45.38,16.84,45.38,39.3c0,24.33-18.25,42.11-45.38,42.11S754.71,286.68,754.71,263.76Z"/><rect class="cls-1" x="763.6" y="339.55" width="72.98" height="251.71"/><path class="cls-1" d="M1115,447.16V582.09a9.17,9.17,0,0,1-9.16,9.17h-54.66a9.17,9.17,0,0,1-9.16-9.17V458.39c0-40.71-18.72-59.42-51-59.42-35.09,0-60.35,21.52-60.35,67.84V582.09a9.18,9.18,0,0,1-9.17,9.17H866.8a9.18,9.18,0,0,1-9.17-9.17V348.72a9.17,9.17,0,0,1,9.17-9.17h51.37a9.16,9.16,0,0,1,9.17,9.17h0c0,7.36,8.35,11.87,14.32,7.57,18.5-13.36,42.31-20.48,69-20.48C1070,335.81,1115,370.43,1115,447.16Z"/><path class="cls-3" d="M1125.24,263.76c0-22.93,18.24-40.71,45.38-40.71s45.38,16.84,45.38,39.3c0,24.33-18.24,42.11-45.38,42.11S1125.24,286.68,1125.24,263.76Z"/><rect class="cls-1" x="1134.13" y="339.55" width="72.98" height="251.71"/><ellipse class="cls-1" cx="932.27" cy="160.56" rx="85.73" ry="49.63"/><polygon class="cls-1" points="878 193 845.37 239.43 901 193 878 193"/></svg>